<svg width="462" height="175" viewBox="0 0 462 175" fill="none" xmlns="http://www.w3.org/2000/svg">
<g opacity="0.3" clip-path="url(#clip0_116_3930)">
<path fill-rule="evenodd" clip-rule="evenodd" d="M462 36.5519C462.204 44.7199 458.116 51.2544 449.326 45.741C445.646 43.4947 447.486 40.4317 447.895 36.5519C452.596 31.0385 456.685 32.2637 462 36.5519Z" fill="#DEB905"/>
<path fill-rule="evenodd" clip-rule="evenodd" d="M462 69.8368C460.773 80.4552 454.641 81.272 447.281 74.9418C448.508 64.7318 455.05 61.6688 462 69.8368Z" fill="#DEB905"/>
<path fill-rule="evenodd" clip-rule="evenodd" d="M461.387 100.671C461.591 107.41 458.934 113.944 450.961 109.86C446.873 107.614 448.099 105.368 448.508 101.284C453.005 95.9743 455.867 96.9953 461.387 100.671Z" fill="#DEB905"/>
<path fill-rule="evenodd" clip-rule="evenodd" d="M461.387 133.343C460.365 142.736 455.458 145.595 447.895 139.061C447.895 129.259 454.027 127.217 461.387 133.343Z" fill="#DEB905"/>
<path fill-rule="evenodd" clip-rule="evenodd" d="M460.16 164.79C460.365 173.162 456.276 176.021 449.326 171.12C449.326 162.544 453.005 160.298 460.16 164.79Z" fill="#DEB905"/>
<path fill-rule="evenodd" clip-rule="evenodd" d="M446.668 84.5389C446.668 91.0734 446.464 91.8902 441.558 95.9742C437.265 95.9742 432.767 94.9532 430.723 90.8692C430.314 79.4339 438.9 78.8213 446.668 84.5389Z" fill="#DEB905"/>
<path fill-rule="evenodd" clip-rule="evenodd" d="M446.055 52.6839C446.464 63.7108 439.513 65.957 431.336 59.8309C431.336 48.5999 437.264 46.3537 446.055 52.6839Z" fill="#DEB905"/>
<path fill-rule="evenodd" clip-rule="evenodd" d="M445.441 117.824C444.01 127.626 438.9 128.034 431.949 122.316C433.38 112.923 438.491 112.106 445.441 117.824Z" fill="#DEB905"/>
<path fill-rule="evenodd" clip-rule="evenodd" d="M444.828 149.883C443.602 158.868 439.309 159.889 432.563 154.376C433.789 145.595 438.082 144.37 444.828 149.883Z" fill="#DEB905"/>
<path fill-rule="evenodd" clip-rule="evenodd" d="M430.723 69.2239C429.496 80.0466 422.342 82.497 414.778 74.9415C415.596 64.5273 422.955 61.6685 430.723 69.2239Z" fill="#DEB905"/>
<path fill-rule="evenodd" clip-rule="evenodd" d="M430.723 101.896C429.905 110.064 419.888 117.211 415.391 107.001C415.187 95.7702 423.568 93.7282 430.723 101.896Z" fill="#DEB905"/>
<path fill-rule="evenodd" clip-rule="evenodd" d="M429.497 37.1645C428.679 43.9032 424.999 50.4376 418.049 44.5158C414.982 41.8612 416.004 42.678 416.618 37.7771C421.32 32.2637 423.159 32.6721 429.497 37.1645Z" fill="#DEB905"/>
<path fill-rule="evenodd" clip-rule="evenodd" d="M428.679 133.956C427.452 142.941 423.159 144.166 416.413 138.448C417.844 129.463 421.933 128.442 428.679 133.956Z" fill="#DEB905"/>
<path fill-rule="evenodd" clip-rule="evenodd" d="M428.679 166.015C427.861 171.733 424.999 177.246 418.662 172.754C415.596 171.529 415.187 169.283 417.027 166.015C421.728 160.502 423.568 161.523 428.679 166.015Z" fill="#DEB905"/>
<path fill-rule="evenodd" clip-rule="evenodd" d="M413.96 52.0711C414.369 63.3022 408.236 66.7736 399.241 59.8307C399.241 49.0081 405.17 46.1493 413.96 52.0711Z" fill="#DEB905"/>
<path fill-rule="evenodd" clip-rule="evenodd" d="M413.96 83.9263C414.369 93.7279 409.054 99.4456 399.855 92.9111C394.335 81.4759 407.01 79.4339 413.96 83.9263Z" fill="#DEB905"/>
<path fill-rule="evenodd" clip-rule="evenodd" d="M413.96 117.416C414.165 123.95 408.236 132.731 401.286 125.584C397.197 121.295 400.673 115.986 403.739 112.923C408.645 113.331 410.281 114.148 413.96 117.416Z" fill="#DEB905"/>
<path fill-rule="evenodd" clip-rule="evenodd" d="M412.734 149.271C412.938 157.847 407.623 160.706 400.673 155.805C400.468 147.433 405.374 141.919 412.734 149.271Z" fill="#DEB905"/>
<path fill-rule="evenodd" clip-rule="evenodd" d="M398.628 37.9813C397.606 47.9871 382.274 52.4796 383.296 40.2275C384.114 30.2217 393.722 31.0385 398.628 37.9813Z" fill="#DEB905"/>
<path fill-rule="evenodd" clip-rule="evenodd" d="M398.015 101.283C396.788 111.698 391.064 113.74 383.296 107.001C383.092 96.3826 391.064 94.3406 398.015 101.283Z" fill="#DEB905"/>
<path fill-rule="evenodd" clip-rule="evenodd" d="M398.015 133.343C396.993 143.349 391.269 146.004 383.296 139.878C383.296 130.076 390.86 124.767 398.015 133.343Z" fill="#DEB905"/>
<path fill-rule="evenodd" clip-rule="evenodd" d="M397.402 68.6115C397.811 78.8215 391.882 81.6803 383.91 75.1459C383.705 66.1611 390.656 62.077 397.402 68.6115Z" fill="#DEB905"/>
<path fill-rule="evenodd" clip-rule="evenodd" d="M395.357 165.403C395.562 173.162 392.087 175.613 385.75 171.12C385.75 164.994 389.838 159.685 395.357 165.403Z" fill="#DEB905"/>
<path fill-rule="evenodd" clip-rule="evenodd" d="M382.07 53.9089C380.639 66.5693 364.285 64.9357 368.578 53.5005C371.031 46.5577 378.595 49.2123 382.07 53.9089Z" fill="#DEB905"/>
<path fill-rule="evenodd" clip-rule="evenodd" d="M382.07 116.599C381.048 126.4 376.142 130.893 367.351 124.154C367.147 114.352 374.302 109.043 382.07 116.599Z" fill="#DEB905"/>
<path fill-rule="evenodd" clip-rule="evenodd" d="M381.252 149.883C380.434 155.193 380.23 159.072 373.688 158.051C372.257 157.847 368.373 157.03 368.373 154.988C368.169 144.983 374.302 143.962 381.252 149.883Z" fill="#DEB905"/>
<path fill-rule="evenodd" clip-rule="evenodd" d="M380.639 85.356C380.639 90.6652 379.003 95.566 372.871 93.9324C363.467 91.482 370.418 78.4132 380.639 85.356Z" fill="#DEB905"/>
<path fill-rule="evenodd" clip-rule="evenodd" d="M365.307 37.1645C365.512 44.3115 357.743 52.6837 352.224 43.9031C346.091 34.3057 359.583 29.4048 365.307 37.1645Z" fill="#DEB905"/>
<path fill-rule="evenodd" clip-rule="evenodd" d="M365.307 133.343C364.285 142.736 359.583 145.595 351.815 139.061C351.406 129.055 358.97 128.034 365.307 133.343Z" fill="#DEB905"/>
<path fill-rule="evenodd" clip-rule="evenodd" d="M364.694 69.2239C364.694 74.5331 363.058 79.4339 357.13 77.8003C347.726 75.3499 354.268 62.2811 364.694 69.2239Z" fill="#DEB905"/>
<path fill-rule="evenodd" clip-rule="evenodd" d="M364.694 101.284C364.898 110.064 359.788 112.923 352.428 107.614C352.428 99.4458 357.334 93.9324 364.694 101.284Z" fill="#DEB905"/>
<path fill-rule="evenodd" clip-rule="evenodd" d="M364.694 166.015C363.467 174.796 359.174 176.021 352.428 170.508C353.655 161.523 357.948 160.298 364.694 166.015Z" fill="#DEB905"/>
<path fill-rule="evenodd" clip-rule="evenodd" d="M348.544 52.0711C348.135 56.7678 348.135 58.1972 345.273 62.2812C343.638 62.2812 335.666 62.2812 335.666 59.014C335.666 50.8459 341.798 45.1283 348.544 52.0711Z" fill="#DEB905"/>
<path fill-rule="evenodd" clip-rule="evenodd" d="M348.544 85.3561C347.727 92.7073 343.843 97.4039 336.279 91.6863C336.483 83.1099 341.389 78.0048 348.544 85.3561Z" fill="#DEB905"/>
<path fill-rule="evenodd" clip-rule="evenodd" d="M348.544 148.658C348.953 157.643 344.251 161.319 336.279 155.805C336.483 148.25 341.798 141.715 348.544 148.658Z" fill="#DEB905"/>
<path fill-rule="evenodd" clip-rule="evenodd" d="M347.318 117.824C347.318 124.154 343.842 126.4 338.323 122.929C338.323 117.415 341.798 112.31 347.318 117.824Z" fill="#DEB905"/>
<path fill-rule="evenodd" clip-rule="evenodd" d="M333.212 37.9813C332.395 44.3115 324.626 51.4585 320.333 43.0863C321.356 35.1225 326.671 30.2217 333.212 37.9813Z" fill="#DEB905"/>
<path fill-rule="evenodd" clip-rule="evenodd" d="M333.212 69.2239C333.417 79.4339 318.289 81.4759 319.925 71.4701C321.151 64.7315 330.146 62.6895 333.212 69.2239Z" fill="#DEB905"/>
<path fill-rule="evenodd" clip-rule="evenodd" d="M333.212 166.015C332.599 170.712 333.008 171.324 329.328 175C327.693 175 320.334 174.796 320.334 171.733C319.925 164.79 329.124 157.643 333.212 166.015Z" fill="#DEB905"/>
<path fill-rule="evenodd" clip-rule="evenodd" d="M317.267 53.2964C317.267 59.014 313.792 66.5694 306.637 61.4644C302.957 58.8098 303.775 58.6056 304.388 53.909C309.09 48.3956 310.93 48.804 317.267 53.2964Z" fill="#DEB905"/>
<path fill-rule="evenodd" clip-rule="evenodd" d="M315.836 85.9685C315.427 89.2357 315.018 93.9323 310.521 93.5239C309.09 93.5239 305.002 92.2987 305.002 90.4609C305.002 82.4971 310.112 80.0467 315.836 85.9685Z" fill="#DEB905"/>
<path fill-rule="evenodd" clip-rule="evenodd" d="M315.836 149.883C315.836 157.439 311.339 159.685 305.002 155.601C305.002 147.841 309.09 142.94 315.836 149.883Z" fill="#DEB905"/>
<path fill-rule="evenodd" clip-rule="evenodd" d="M315.223 117.824C315.223 124.358 305.615 127.421 305.615 121.704C306.024 114.761 310.112 114.352 315.223 117.824Z" fill="#DEB905"/>
<path fill-rule="evenodd" clip-rule="evenodd" d="M301.118 37.9812C299.687 47.7829 294.576 48.1913 287.626 42.4737C289.057 32.672 294.372 32.0594 301.118 37.9812Z" fill="#DEB905"/>
<path fill-rule="evenodd" clip-rule="evenodd" d="M299.891 69.8366C299.482 73.1038 299.073 77.8005 294.576 77.3921C293.145 77.3921 289.057 76.1669 289.057 74.329C289.057 66.161 293.963 65.3442 299.891 69.8366Z" fill="#DEB905"/>
<path fill-rule="evenodd" clip-rule="evenodd" d="M299.891 133.956C299.891 141.511 295.394 143.757 289.057 139.673C289.057 131.71 292.941 127.013 299.891 133.956Z" fill="#DEB905"/>
<path fill-rule="evenodd" clip-rule="evenodd" d="M299.278 101.283C299.482 109.043 296.007 111.493 289.67 107.001C289.67 100.875 293.554 95.5658 299.278 101.283Z" fill="#DEB905"/>
<path fill-rule="evenodd" clip-rule="evenodd" d="M283.946 53.9091C283.128 59.2183 276.996 66.1611 273.112 58.4015C273.112 50.4376 278.427 48.3956 283.946 53.9091Z" fill="#DEB905"/>
<path fill-rule="evenodd" clip-rule="evenodd" d="M283.946 117.415C284.15 126.604 279.653 128.442 272.294 122.52C271.885 113.74 278.018 113.74 283.946 117.415Z" fill="#DEB905"/>
<path fill-rule="evenodd" clip-rule="evenodd" d="M283.333 85.3559C283.537 93.1156 280.062 95.566 273.725 91.0736C273.725 84.9475 277.609 79.6383 283.333 85.3559Z" fill="#DEB905"/>
<path fill-rule="evenodd" clip-rule="evenodd" d="M283.333 149.883C283.333 156.418 273.725 159.481 273.725 153.763C274.134 146.616 278.018 146.412 283.333 149.883Z" fill="#DEB905"/>
<path fill-rule="evenodd" clip-rule="evenodd" d="M269.227 4.69661C269.636 14.7024 263.708 17.5613 255.735 11.8436C255.735 2.6546 261.459 -3.06302 269.227 4.69661Z" fill="#DEB905"/>
<path fill-rule="evenodd" clip-rule="evenodd" d="M269.228 166.015C269.228 172.141 263.708 178.063 257.984 172.345C255.531 169.895 256.758 167.649 256.962 164.79C261.664 158.664 264.526 161.931 269.228 166.015Z" fill="#DEB905"/>
<path fill-rule="evenodd" clip-rule="evenodd" d="M267.796 36.5518C268.001 43.2904 267.183 46.5576 260.028 45.5366C252.056 38.798 259.415 31.651 267.796 36.5518Z" fill="#DEB905"/>
<path fill-rule="evenodd" clip-rule="evenodd" d="M267.796 69.8368C266.979 75.146 260.846 82.0888 256.962 74.3292C257.166 66.5696 262.277 64.3234 267.796 69.8368Z" fill="#DEB905"/>
<path fill-rule="evenodd" clip-rule="evenodd" d="M267.796 100.671C268.001 107.001 266.365 112.719 259.006 109.452C251.238 105.98 260.437 93.3197 267.796 100.671Z" fill="#DEB905"/>
<path fill-rule="evenodd" clip-rule="evenodd" d="M267.796 133.956C266.979 139.265 260.846 146.208 256.962 138.448C257.166 130.484 262.277 128.442 267.796 133.956Z" fill="#DEB905"/>
<path fill-rule="evenodd" clip-rule="evenodd" d="M253.078 149.883C253.282 158.051 247.967 160.706 240.812 156.214C235.702 145.799 246.536 144.166 253.078 149.883Z" fill="#DEB905"/>
<path fill-rule="evenodd" clip-rule="evenodd" d="M252.465 20.6243C252.669 26.3419 246.128 36.5519 241.017 27.3629C235.702 17.9697 247.15 17.3571 252.465 20.6243Z" fill="#DEB905"/>
<path fill-rule="evenodd" clip-rule="evenodd" d="M252.465 85.9685C251.443 93.3197 247.967 96.7912 240.812 92.2987C236.111 82.4971 246.741 81.0677 252.465 85.9685Z" fill="#DEB905"/>
<path fill-rule="evenodd" clip-rule="evenodd" d="M251.851 53.2964C252.056 61.4645 247.558 63.7107 241.017 59.0141C241.017 50.6418 244.492 49.0082 251.851 53.2964Z" fill="#DEB905"/>
<path fill-rule="evenodd" clip-rule="evenodd" d="M251.851 117.415C251.851 125.175 247.763 128.034 241.017 123.746C241.017 115.169 244.083 112.719 251.851 117.415Z" fill="#DEB905"/>
<path fill-rule="evenodd" clip-rule="evenodd" d="M237.133 4.69667C237.337 11.4353 234.68 17.9697 226.707 13.8857C218.121 9.39328 228.342 -4.08396 237.133 4.69667Z" fill="#DEB905"/>
<path fill-rule="evenodd" clip-rule="evenodd" d="M237.133 133.956C237.133 135.589 237.133 142.328 234.475 142.328C232.635 142.532 224.254 142.532 224.254 139.265C223.436 129.667 231.204 127.013 237.133 133.956Z" fill="#DEB905"/>
<path fill-rule="evenodd" clip-rule="evenodd" d="M236.519 69.2241C235.702 76.5753 231.613 81.4761 224.458 75.5543C224.254 66.3653 228.547 64.119 236.519 69.2241Z" fill="#DEB905"/>
<path fill-rule="evenodd" clip-rule="evenodd" d="M235.906 36.5519C236.111 44.7199 232.635 48.3955 225.072 43.4947C224.867 35.1225 227.525 31.651 235.906 36.5519Z" fill="#DEB905"/>
<path fill-rule="evenodd" clip-rule="evenodd" d="M235.906 100.671C236.111 108.839 232.635 112.515 225.072 107.818C221.188 100.058 230.591 95.5659 235.906 100.671Z" fill="#DEB905"/>
<path fill-rule="evenodd" clip-rule="evenodd" d="M235.906 165.403C236.111 174.592 231.613 176.43 224.458 170.508C224.05 163.157 230.387 160.094 235.906 165.403Z" fill="#DEB905"/>
<path fill-rule="evenodd" clip-rule="evenodd" d="M220.983 53.909C219.552 63.9149 214.442 64.3233 207.491 59.0141C207.696 48.5998 214.646 48.3956 220.983 53.909Z" fill="#DEB905"/>
<path fill-rule="evenodd" clip-rule="evenodd" d="M220.983 117.415C221.392 128.238 215.055 129.055 207.491 123.133C207.696 112.923 213.011 111.698 220.983 117.415Z" fill="#DEB905"/>
<path fill-rule="evenodd" clip-rule="evenodd" d="M220.37 20.6242C220.574 29.6091 216.077 33.0805 208.104 27.5671C208.309 18.1738 211.989 15.1108 220.37 20.6242Z" fill="#DEB905"/>
<path fill-rule="evenodd" clip-rule="evenodd" d="M220.37 85.9684C219.348 92.2986 216.281 97.1994 209.944 92.5028C206.878 90.2566 208.104 90.4608 208.718 85.9684C213.42 80.455 215.259 81.6802 220.37 85.9684Z" fill="#DEB905"/>
<path fill-rule="evenodd" clip-rule="evenodd" d="M219.757 148.658C219.961 154.784 218.326 160.706 210.966 157.439C202.994 153.967 212.397 141.307 219.757 148.658Z" fill="#DEB905"/>
<path fill-rule="evenodd" clip-rule="evenodd" d="M205.038 5.10493C204.016 13.273 199.927 17.7654 192.159 12.252C187.253 2.65452 198.701 -8.60691e-05 205.038 5.10493Z" fill="#DEB905"/>
<path fill-rule="evenodd" clip-rule="evenodd" d="M205.038 36.5519C205.242 46.5577 199.518 49.6208 191.546 43.4947C191.546 34.7141 197.27 28.9965 205.038 36.5519Z" fill="#DEB905"/>
<path fill-rule="evenodd" clip-rule="evenodd" d="M205.038 101.284C204.629 104.959 205.856 109.247 201.154 110.677C198.905 111.289 191.546 109.452 191.546 106.389C191.342 96.9954 198.496 94.7492 205.038 101.284Z" fill="#DEB905"/>
<path fill-rule="evenodd" clip-rule="evenodd" d="M204.425 69.224C203.811 74.7375 196.657 84.1307 192.159 74.9417C192.159 65.7526 197.065 64.3232 204.425 69.224Z" fill="#DEB905"/>
<path fill-rule="evenodd" clip-rule="evenodd" d="M204.425 133.956C203.403 141.307 199.928 144.778 192.977 140.286C187.867 130.688 198.701 129.055 204.425 133.956Z" fill="#DEB905"/>
<path fill-rule="evenodd" clip-rule="evenodd" d="M203.198 166.015C203.198 173.979 193.182 173.979 194.408 167.036C195.43 161.319 199.723 163.565 203.198 166.015Z" fill="#DEB905"/>
<path fill-rule="evenodd" clip-rule="evenodd" d="M189.706 21.2367C188.684 29.4048 187.049 30.8342 178.872 30.8342C170.49 21.0325 180.507 12.0477 189.706 21.2367Z" fill="#DEB905"/>
<path fill-rule="evenodd" clip-rule="evenodd" d="M189.093 85.3559C188.071 96.587 183.165 97.608 174.988 90.4609C174.988 80.4551 182.347 79.6383 189.093 85.3559Z" fill="#DEB905"/>
<path fill-rule="evenodd" clip-rule="evenodd" d="M188.275 52.6837C188.48 59.8308 185.004 66.7736 177.645 60.4434C174.17 57.3803 175.192 54.9299 177.849 51.6627C181.938 47.3745 184.187 49.6207 188.275 52.6837Z" fill="#DEB905"/>
<path fill-rule="evenodd" clip-rule="evenodd" d="M188.275 117.824C187.458 124.154 184.187 129.055 177.85 124.358C174.783 122.112 176.01 122.521 176.623 117.824C181.529 112.515 183.165 113.74 188.275 117.824Z" fill="#DEB905"/>
<path fill-rule="evenodd" clip-rule="evenodd" d="M187.049 149.271C187.049 156.826 183.369 158.664 177.441 154.376C177.441 148.25 181.938 143.961 187.049 149.271Z" fill="#DEB905"/>
<path fill-rule="evenodd" clip-rule="evenodd" d="M174.17 3.8797C173.556 11.8435 168.241 21.8494 159.86 12.8645C157.407 10.2099 157.816 5.51331 160.269 2.6545C164.971 -2.45052 169.877 0.816692 174.17 3.8797Z" fill="#DEB905"/>
<path fill-rule="evenodd" clip-rule="evenodd" d="M172.943 37.1643C173.148 44.5156 168.855 50.2332 161.495 44.924C158.429 42.6778 159.86 40.6358 160.269 37.1643C164.766 31.8551 167.628 32.8761 172.943 37.1643Z" fill="#DEB905"/>
<path fill-rule="evenodd" clip-rule="evenodd" d="M172.943 68.6115C173.148 76.5753 168.855 83.7223 161.087 76.9837C153.523 70.4493 165.175 60.8518 172.943 68.6115Z" fill="#DEB905"/>
<path fill-rule="evenodd" clip-rule="evenodd" d="M172.33 101.284C171.717 107.001 164.971 115.986 160.065 107.001C160.065 97.8122 164.971 96.3828 172.33 101.284Z" fill="#DEB905"/>
<path fill-rule="evenodd" clip-rule="evenodd" d="M171.717 133.956C171.512 140.898 167.015 143.349 161.496 139.673C157.203 131.709 166.606 128.851 171.717 133.956Z" fill="#DEB905"/>
<path fill-rule="evenodd" clip-rule="evenodd" d="M171.104 166.015C171.104 172.55 161.496 175.408 161.496 169.895C161.904 162.544 165.993 162.34 171.104 166.015Z" fill="#DEB905"/>
<path fill-rule="evenodd" clip-rule="evenodd" d="M158.225 21.8496C157.612 26.7504 157.816 27.363 154.341 31.447C150.048 31.6512 144.528 31.8554 143.302 26.9546C141.053 15.9278 152.297 13.8858 158.225 21.8496Z" fill="#DEB905"/>
<path fill-rule="evenodd" clip-rule="evenodd" d="M157.611 53.9089C156.385 63.9147 150.457 65.5483 142.893 59.6265C142.893 49.0081 150.865 46.1493 157.611 53.9089Z" fill="#DEB905"/>
<path fill-rule="evenodd" clip-rule="evenodd" d="M156.385 84.5391C156.589 93.5239 152.092 96.9953 144.324 91.4819C144.12 82.2929 148.208 79.6383 156.385 84.5391Z" fill="#DEB905"/>
<path fill-rule="evenodd" clip-rule="evenodd" d="M155.772 116.599C155.976 124.971 151.888 128.034 144.937 122.929C144.733 116.599 149.639 110.473 155.772 116.599Z" fill="#DEB905"/>
<path fill-rule="evenodd" clip-rule="evenodd" d="M154.954 149.271C154.954 156.826 151.274 158.664 145.346 154.376C145.55 148.454 149.843 143.962 154.954 149.271Z" fill="#DEB905"/>
<path fill-rule="evenodd" clip-rule="evenodd" d="M142.28 3.87961C141.462 13.0686 136.147 20.2157 126.948 12.8644C121.633 1.8376 134.92 -3.26742 142.28 3.87961Z" fill="#DEB905"/>
<path fill-rule="evenodd" clip-rule="evenodd" d="M141.666 36.5518C140.849 45.5366 136.351 51.0501 127.561 44.924C122.45 34.5098 134.511 29.609 141.666 36.5518Z" fill="#DEB905"/>
<path fill-rule="evenodd" clip-rule="evenodd" d="M140.849 69.2242C140.849 75.9628 136.147 82.4972 129.197 76.5754C126.743 74.3292 126.743 71.4704 128.992 68.4074C132.672 63.0982 136.556 66.1612 140.849 69.2242Z" fill="#DEB905"/>
<path fill-rule="evenodd" clip-rule="evenodd" d="M140.849 166.015C141.053 175.817 134.512 176.021 127.97 170.508C128.174 159.481 133.694 160.502 140.849 166.015Z" fill="#DEB905"/>
<path fill-rule="evenodd" clip-rule="evenodd" d="M140.235 101.896C139.622 105.572 139.418 109.451 134.716 109.451C133.285 109.451 128.788 108.839 128.788 106.797C128.583 97.812 133.081 95.9742 140.235 101.896Z" fill="#DEB905"/>
<path fill-rule="evenodd" clip-rule="evenodd" d="M139.622 133.956C139.622 141.103 135.329 143.349 129.401 139.673C125.312 131.301 134.307 128.646 139.622 133.956Z" fill="#DEB905"/>
<path fill-rule="evenodd" clip-rule="evenodd" d="M126.13 20.6244C125.108 31.0387 118.975 35.1227 110.185 28.3841C110.185 16.9488 117.136 12.8648 126.13 20.6244Z" fill="#DEB905"/>
<path fill-rule="evenodd" clip-rule="evenodd" d="M124.904 52.6838C125.313 61.8728 119.589 66.9778 111.412 60.4434C111.207 51.0502 117.136 44.7199 124.904 52.6838Z" fill="#DEB905"/>
<path fill-rule="evenodd" clip-rule="evenodd" d="M124.904 85.3559C124.086 92.5029 115.909 99.6499 111.412 90.4609C111.616 80.8635 118.566 79.0257 124.904 85.3559Z" fill="#DEB905"/>
<path fill-rule="evenodd" clip-rule="evenodd" d="M124.903 151.925C124.903 160.298 112.025 159.685 112.025 154.58C111.82 144.37 123.064 142.532 124.903 151.925Z" fill="#DEB905"/>
<path fill-rule="evenodd" clip-rule="evenodd" d="M124.29 117.824C123.882 121.295 123.473 125.992 118.566 125.583C117.136 125.583 112.843 124.358 112.843 122.316C112.638 113.331 117.544 112.31 124.29 117.824Z" fill="#DEB905"/>
<path fill-rule="evenodd" clip-rule="evenodd" d="M110.185 5.10503C108.958 16.5403 102.621 18.1739 94.2397 10.8226C95.2619 0.408413 102.621 -2.4504 110.185 5.10503Z" fill="#DEB905"/>
<path fill-rule="evenodd" clip-rule="evenodd" d="M110.185 37.1645C109.163 47.3745 102.008 51.2543 94.853 42.8821C94.853 32.2637 102.621 29.8133 110.185 37.1645Z" fill="#DEB905"/>
<path fill-rule="evenodd" clip-rule="evenodd" d="M109.572 69.8366C108.958 74.7374 108.345 79.0256 102.621 78.413C98.1239 78.0046 95.4664 77.392 95.8752 72.287C96.6929 62.6896 104.461 64.119 109.572 69.8366Z" fill="#DEB905"/>
<path fill-rule="evenodd" clip-rule="evenodd" d="M108.958 133.956C108.958 140.694 103.234 148.046 97.1017 140.286C95.0575 137.631 94.6486 133.547 97.5106 131.097C102.417 127.421 105.279 130.893 108.958 133.956Z" fill="#DEB905"/>
<path fill-rule="evenodd" clip-rule="evenodd" d="M108.345 100.671C108.55 106.593 105.483 113.944 98.3284 108.839C95.262 106.593 95.262 103.734 97.5107 100.467C100.373 96.3828 104.666 98.4248 108.345 100.671Z" fill="#DEB905"/>
<path fill-rule="evenodd" clip-rule="evenodd" d="M107.732 165.403C107.936 173.775 103.439 176.838 96.284 171.937C96.0796 164.382 100.986 158.868 107.732 165.403Z" fill="#DEB905"/>
<path fill-rule="evenodd" clip-rule="evenodd" d="M94.2398 53.2964C93.6265 59.0141 93.2177 64.5275 85.654 63.3023C83.8142 63.0981 78.908 61.2603 78.908 59.0141C79.7257 48.3956 86.2673 45.3326 94.2398 53.2964Z" fill="#DEB905"/>
<path fill-rule="evenodd" clip-rule="evenodd" d="M93.6266 20.0117C94.0354 30.426 87.6982 34.9184 78.908 28.384C78.908 17.5613 83.6097 13.4773 93.6266 20.0117Z" fill="#DEB905"/>
<path fill-rule="evenodd" clip-rule="evenodd" d="M92.809 85.3559C92.809 92.0945 90.3559 95.3618 83.8143 94.3408C75.2284 86.7853 84.2231 76.5753 92.809 85.3559Z" fill="#DEB905"/>
<path fill-rule="evenodd" clip-rule="evenodd" d="M92.8089 117.415C92.4001 120.682 93.4222 124.358 89.947 126.4C85.2452 129.055 78.9081 125.175 79.1125 119.866C79.7258 110.677 88.3116 113.944 92.8089 117.415Z" fill="#DEB905"/>
<path fill-rule="evenodd" clip-rule="evenodd" d="M91.5823 148.658C91.7868 154.988 89.9469 160.706 82.7921 157.439C74.8195 153.967 84.223 141.307 91.5823 148.658Z" fill="#DEB905"/>
<path fill-rule="evenodd" clip-rule="evenodd" d="M78.0903 37.1644C77.4771 42.2694 77.4771 42.882 74.2063 47.3744C68.6868 46.7618 62.3496 47.1702 62.9629 40.0232C63.985 29.4048 72.162 32.0594 78.0903 37.1644Z" fill="#DEB905"/>
<path fill-rule="evenodd" clip-rule="evenodd" d="M77.4769 4.69666C77.8857 15.7235 70.9353 17.9697 62.7583 11.8437C62.7583 1.42945 69.5043 -3.47137 77.4769 4.69666Z" fill="#DEB905"/>
<path fill-rule="evenodd" clip-rule="evenodd" d="M77.4771 69.224C76.8638 75.9626 68.8912 85.56 63.985 75.35C59.2832 64.7316 71.5487 63.3022 77.4771 69.224Z" fill="#DEB905"/>
<path fill-rule="evenodd" clip-rule="evenodd" d="M76.8636 101.284C75.8415 112.106 70.7309 113.331 62.7583 106.389C62.7583 96.587 70.7309 95.1576 76.8636 101.284Z" fill="#DEB905"/>
<path fill-rule="evenodd" clip-rule="evenodd" d="M76.2503 133.956C75.2282 141.307 71.3442 144.574 64.8026 140.286C59.6919 130.688 70.5265 129.055 76.2503 133.956Z" fill="#DEB905"/>
<path fill-rule="evenodd" clip-rule="evenodd" d="M75.024 165.402C75.2284 172.958 71.5488 174.796 65.416 170.507C65.416 164.381 69.7089 160.093 75.024 165.402Z" fill="#DEB905"/>
<path fill-rule="evenodd" clip-rule="evenodd" d="M62.1452 21.2368C61.5319 26.7502 61.3275 31.651 54.377 31.2426C49.6753 30.8342 47.0177 29.4048 47.2222 24.0956C47.8354 14.0897 56.8301 14.2939 62.1452 21.2368Z" fill="#DEB905"/>
<path fill-rule="evenodd" clip-rule="evenodd" d="M61.5318 53.2965C61.123 57.7889 61.3274 59.2183 58.261 62.8939C52.946 62.4855 47.0177 63.5065 47.4265 56.5637C48.0398 46.762 56.0124 46.9662 61.5318 53.2965Z" fill="#DEB905"/>
<path fill-rule="evenodd" clip-rule="evenodd" d="M61.5319 85.9686C60.3054 96.9955 45.5868 98.4249 47.0178 87.398C48.0399 78.0048 57.0346 80.8636 61.5319 85.9686Z" fill="#DEB905"/>
<path fill-rule="evenodd" clip-rule="evenodd" d="M60.3052 117.416C59.4875 124.767 55.399 129.463 48.0397 123.746C43.3379 114.761 54.7857 111.902 60.3052 117.416Z" fill="#DEB905"/>
<path fill-rule="evenodd" clip-rule="evenodd" d="M59.4876 149.271C58.8743 154.376 52.7416 162.952 48.6531 154.376C48.8575 146.412 53.3548 145.595 59.4876 149.271Z" fill="#DEB905"/>
<path fill-rule="evenodd" clip-rule="evenodd" d="M46.8133 5.92194C45.9956 12.6606 44.3602 16.9488 37.0009 14.2942C32.708 12.8648 32.2992 11.4354 32.9124 7.14715C33.7301 -1.63348 42.7248 0.408524 46.8133 5.92194Z" fill="#DEB905"/>
<path fill-rule="evenodd" clip-rule="evenodd" d="M46.6087 37.777C46.6087 47.5787 40.476 49.2123 33.1167 43.4947C33.1167 34.1014 39.4539 30.63 46.6087 37.777Z" fill="#DEB905"/>
<path fill-rule="evenodd" clip-rule="evenodd" d="M45.3824 101.896C44.9736 105.368 44.5647 109.86 39.6585 109.452C38.2275 109.247 33.9346 108.226 33.9346 106.184C33.7302 97.4038 38.6364 96.3827 45.3824 101.896Z" fill="#DEB905"/>
<path fill-rule="evenodd" clip-rule="evenodd" d="M46.2 68.4074C46.2 74.125 43.9513 79.4342 37.4097 75.5544C31.277 72.083 39.0451 61.2603 46.2 68.4074Z" fill="#DEB905"/>
<path fill-rule="evenodd" clip-rule="evenodd" d="M44.1558 133.956C44.1558 140.49 34.5479 143.553 34.5479 137.835C34.9567 130.688 39.0452 130.28 44.1558 133.956Z" fill="#DEB905"/>
<path fill-rule="evenodd" clip-rule="evenodd" d="M30.6638 53.909C30.0505 58.8098 29.4372 63.098 23.7133 62.4854C19.4204 61.8728 16.354 60.8518 16.9673 55.951C17.785 47.5788 26.5753 47.5788 30.6638 53.909Z" fill="#DEB905"/>
<path fill-rule="evenodd" clip-rule="evenodd" d="M30.0504 20.0117C30.4592 30.2218 25.3486 34.3058 16.5583 27.5672C16.5583 19.6033 22.4867 12.2521 30.0504 20.0117Z" fill="#DEB905"/>
<path fill-rule="evenodd" clip-rule="evenodd" d="M29.4372 85.3559C28.2106 96.3828 15.1274 95.9744 17.785 86.5811C19.2159 81.2719 26.9841 80.0467 29.4372 85.3559Z" fill="#DEB905"/>
<path fill-rule="evenodd" clip-rule="evenodd" d="M28.2105 117.415C28.4149 124.562 25.1441 127.217 18.6025 123.133C18.6025 115.373 21.8733 112.923 28.2105 117.415Z" fill="#DEB905"/>
<path fill-rule="evenodd" clip-rule="evenodd" d="M28.2105 149.883C28.2105 156.418 18.6025 159.481 18.6025 153.763C19.0114 146.616 23.0999 146.412 28.2105 149.883Z" fill="#DEB905"/>
<path fill-rule="evenodd" clip-rule="evenodd" d="M14.7187 5.9218C13.4921 16.5402 -1.63531 19.1948 0.204509 7.147C1.63548 -2.24623 10.6302 -2.09212e-05 14.7187 5.9218Z" fill="#DEB905"/>
<path fill-rule="evenodd" clip-rule="evenodd" d="M14.7186 37.9815C14.1054 43.2907 13.9009 47.5789 7.15492 46.7621C5.51952 46.5579 0.613326 45.1285 0.613326 43.0865C0.408901 32.2639 8.17704 30.2219 14.7186 37.9815Z" fill="#DEB905"/>
<path fill-rule="evenodd" clip-rule="evenodd" d="M14.7187 69.8366C13.901 76.371 12.2656 80.6592 4.90626 78.2088C0.817768 76.7794 0.204494 75.5542 0.817768 71.4702C1.83989 62.8937 10.6302 64.1189 14.7187 69.8366Z" fill="#DEB905"/>
<path fill-rule="evenodd" clip-rule="evenodd" d="M12.8788 101.896C13.0832 109.452 7.15489 110.677 1.83984 106.389C1.83984 100.467 9.19914 94.5451 12.8788 101.896Z" fill="#DEB905"/>
<path fill-rule="evenodd" clip-rule="evenodd" d="M12.0611 133.956C12.0611 140.49 2.45312 143.553 2.45312 137.835C2.86197 130.688 6.95047 130.28 12.0611 133.956Z" fill="#DEB905"/>
</g>
<defs>
<clipPath id="clip0_116_3930">
<rect width="462" height="175" fill="white"/>
</clipPath>
</defs>
</svg>
