<svg width="451" height="171" viewBox="0 0 451 171" fill="none" xmlns="http://www.w3.org/2000/svg">
<g opacity="0.3" clip-path="url(#clip0_116_3786)">
<path fill-rule="evenodd" clip-rule="evenodd" d="M451 35.7164C451.2 43.6977 447.208 50.0828 438.627 44.6954C435.035 42.5005 436.831 39.5075 437.231 35.7164C441.82 30.329 445.812 31.5262 451 35.7164Z" fill="#DEB905"/>
<path fill-rule="evenodd" clip-rule="evenodd" d="M451 68.2404C449.803 78.6162 443.816 79.4143 436.632 73.2288C437.829 63.2521 444.215 60.2591 451 68.2404Z" fill="#DEB905"/>
<path fill-rule="evenodd" clip-rule="evenodd" d="M450.401 98.3699C450.601 104.955 448.007 111.34 440.224 107.349C436.233 105.154 437.43 102.959 437.829 98.9685C442.22 93.7807 445.013 94.7783 450.401 98.3699Z" fill="#DEB905"/>
<path fill-rule="evenodd" clip-rule="evenodd" d="M450.401 130.295C449.404 139.474 444.614 142.267 437.231 135.882C437.231 126.305 443.217 124.309 450.401 130.295Z" fill="#DEB905"/>
<path fill-rule="evenodd" clip-rule="evenodd" d="M449.204 161.023C449.404 169.204 445.412 171.998 438.627 167.209C438.627 158.828 442.219 156.634 449.204 161.023Z" fill="#DEB905"/>
<path fill-rule="evenodd" clip-rule="evenodd" d="M436.033 82.6068C436.033 88.9919 435.834 89.79 431.044 93.7807C426.853 93.7807 422.463 92.783 420.468 88.7923C420.068 77.6185 428.45 77.0199 436.033 82.6068Z" fill="#DEB905"/>
<path fill-rule="evenodd" clip-rule="evenodd" d="M435.435 51.4795C435.834 62.2543 429.049 64.4492 421.066 58.4632C421.066 47.4889 426.854 45.294 435.435 51.4795Z" fill="#DEB905"/>
<path fill-rule="evenodd" clip-rule="evenodd" d="M434.836 115.131C433.439 124.708 428.45 125.107 421.665 119.52C423.062 110.342 428.051 109.544 434.836 115.131Z" fill="#DEB905"/>
<path fill-rule="evenodd" clip-rule="evenodd" d="M434.237 146.458C433.04 155.237 428.849 156.235 422.264 150.847C423.461 142.267 427.652 141.07 434.237 146.458Z" fill="#DEB905"/>
<path fill-rule="evenodd" clip-rule="evenodd" d="M420.468 67.6417C419.27 78.217 412.286 80.6114 404.902 73.2286C405.7 63.0525 412.885 60.259 420.468 67.6417Z" fill="#DEB905"/>
<path fill-rule="evenodd" clip-rule="evenodd" d="M420.468 99.567C419.669 107.548 409.891 114.532 405.501 104.555C405.301 93.581 413.483 91.5857 420.468 99.567Z" fill="#DEB905"/>
<path fill-rule="evenodd" clip-rule="evenodd" d="M419.27 36.315C418.472 42.8996 414.88 49.2847 408.095 43.4982C405.102 40.9043 406.1 41.7024 406.698 36.9136C411.288 31.5262 413.084 31.9253 419.27 36.315Z" fill="#DEB905"/>
<path fill-rule="evenodd" clip-rule="evenodd" d="M418.472 130.894C417.275 139.673 413.084 140.871 406.499 135.284C407.896 126.504 411.887 125.507 418.472 130.894Z" fill="#DEB905"/>
<path fill-rule="evenodd" clip-rule="evenodd" d="M418.472 162.221C417.674 167.808 414.88 173.195 408.694 168.805C405.7 167.608 405.301 165.413 407.097 162.221C411.687 156.833 413.483 157.831 418.472 162.221Z" fill="#DEB905"/>
<path fill-rule="evenodd" clip-rule="evenodd" d="M404.104 50.8811C404.503 61.8554 398.516 65.2475 389.736 58.4633C389.736 47.8881 395.523 45.0946 404.104 50.8811Z" fill="#DEB905"/>
<path fill-rule="evenodd" clip-rule="evenodd" d="M404.104 82.0081C404.503 91.5857 399.315 97.1726 390.335 90.7875C384.946 79.6137 397.319 77.6183 404.104 82.0081Z" fill="#DEB905"/>
<path fill-rule="evenodd" clip-rule="evenodd" d="M404.104 114.732C404.304 121.117 398.516 129.697 391.731 122.713C387.74 118.523 391.133 113.335 394.126 110.342C398.916 110.741 400.512 111.539 404.104 114.732Z" fill="#DEB905"/>
<path fill-rule="evenodd" clip-rule="evenodd" d="M402.907 145.859C403.106 154.239 397.918 157.033 391.133 152.244C390.933 144.063 395.723 138.676 402.907 145.859Z" fill="#DEB905"/>
<path fill-rule="evenodd" clip-rule="evenodd" d="M389.137 37.1131C388.139 46.8903 373.172 51.28 374.17 39.308C374.969 29.5309 384.348 30.329 389.137 37.1131Z" fill="#DEB905"/>
<path fill-rule="evenodd" clip-rule="evenodd" d="M388.538 98.9685C387.341 109.145 381.753 111.14 374.17 104.555C373.971 94.1797 381.753 92.1843 388.538 98.9685Z" fill="#DEB905"/>
<path fill-rule="evenodd" clip-rule="evenodd" d="M388.539 130.295C387.541 140.072 381.953 142.666 374.17 136.68C374.17 127.103 381.554 121.915 388.539 130.295Z" fill="#DEB905"/>
<path fill-rule="evenodd" clip-rule="evenodd" d="M387.94 67.0433C388.339 77.0199 382.552 79.8134 374.769 73.4283C374.57 64.6489 381.354 60.6582 387.94 67.0433Z" fill="#DEB905"/>
<path fill-rule="evenodd" clip-rule="evenodd" d="M385.944 161.622C386.144 169.204 382.751 171.599 376.565 167.209C376.565 161.223 380.556 156.035 385.944 161.622Z" fill="#DEB905"/>
<path fill-rule="evenodd" clip-rule="evenodd" d="M372.973 52.6768C371.576 65.0479 355.612 63.4516 359.802 52.2777C362.197 45.4936 369.581 48.0875 372.973 52.6768Z" fill="#DEB905"/>
<path fill-rule="evenodd" clip-rule="evenodd" d="M372.973 113.934C371.975 123.511 367.186 127.901 358.605 121.316C358.405 111.739 365.39 106.551 372.973 113.934Z" fill="#DEB905"/>
<path fill-rule="evenodd" clip-rule="evenodd" d="M372.175 146.458C371.377 151.645 371.177 155.437 364.791 154.439C363.394 154.239 359.603 153.441 359.603 151.446C359.403 141.669 365.39 140.671 372.175 146.458Z" fill="#DEB905"/>
<path fill-rule="evenodd" clip-rule="evenodd" d="M371.576 83.405C371.576 88.5929 369.98 93.3817 363.993 91.7854C354.813 89.391 361.598 76.6209 371.576 83.405Z" fill="#DEB905"/>
<path fill-rule="evenodd" clip-rule="evenodd" d="M356.609 36.315C356.809 43.2987 349.226 51.4796 343.838 42.8996C337.851 33.5216 351.022 28.7328 356.609 36.315Z" fill="#DEB905"/>
<path fill-rule="evenodd" clip-rule="evenodd" d="M356.609 130.295C355.612 139.474 351.022 142.267 343.439 135.882C343.039 126.105 350.423 125.107 356.609 130.295Z" fill="#DEB905"/>
<path fill-rule="evenodd" clip-rule="evenodd" d="M356.011 67.6418C356.011 72.8297 354.414 77.6185 348.627 76.0222C339.447 73.6278 345.833 60.8577 356.011 67.6418Z" fill="#DEB905"/>
<path fill-rule="evenodd" clip-rule="evenodd" d="M356.011 98.9686C356.21 107.549 351.221 110.342 344.037 105.154C344.037 97.1728 348.826 91.7854 356.011 98.9686Z" fill="#DEB905"/>
<path fill-rule="evenodd" clip-rule="evenodd" d="M356.011 162.22C354.813 170.8 350.623 171.998 344.037 166.61C345.234 157.831 349.425 156.634 356.011 162.22Z" fill="#DEB905"/>
<path fill-rule="evenodd" clip-rule="evenodd" d="M340.246 50.8811C339.846 55.4704 339.846 56.8671 337.053 60.8578C335.456 60.8578 327.673 60.8578 327.673 57.6653C327.673 49.6839 333.66 44.097 340.246 50.8811Z" fill="#DEB905"/>
<path fill-rule="evenodd" clip-rule="evenodd" d="M340.246 83.405C339.447 90.5882 335.656 95.1774 328.272 89.5905C328.472 81.2101 333.261 76.2218 340.246 83.405Z" fill="#DEB905"/>
<path fill-rule="evenodd" clip-rule="evenodd" d="M340.246 145.26C340.645 154.04 336.055 157.631 328.272 152.244C328.472 144.861 333.66 138.476 340.246 145.26Z" fill="#DEB905"/>
<path fill-rule="evenodd" clip-rule="evenodd" d="M339.048 115.131C339.048 121.316 335.656 123.511 330.268 120.119C330.268 114.732 333.66 109.743 339.048 115.131Z" fill="#DEB905"/>
<path fill-rule="evenodd" clip-rule="evenodd" d="M325.279 37.1132C324.481 43.2987 316.897 50.2824 312.707 42.1015C313.704 34.3197 318.893 29.5309 325.279 37.1132Z" fill="#DEB905"/>
<path fill-rule="evenodd" clip-rule="evenodd" d="M325.279 67.6417C325.478 77.6183 310.711 79.6137 312.307 69.8365C313.505 63.2519 322.285 61.2566 325.279 67.6417Z" fill="#DEB905"/>
<path fill-rule="evenodd" clip-rule="evenodd" d="M325.279 162.22C324.68 166.81 325.079 167.408 321.487 171C319.891 171 312.707 170.8 312.707 167.807C312.307 161.023 321.288 154.04 325.279 162.22Z" fill="#DEB905"/>
<path fill-rule="evenodd" clip-rule="evenodd" d="M309.713 52.0782C309.713 57.6651 306.321 65.0479 299.336 60.0595C295.744 57.4656 296.542 57.2661 297.141 52.6768C301.731 47.2894 303.527 47.6885 309.713 52.0782Z" fill="#DEB905"/>
<path fill-rule="evenodd" clip-rule="evenodd" d="M308.316 84.0036C307.917 87.1961 307.518 91.7854 303.128 91.3863C301.731 91.3863 297.74 90.1891 297.74 88.3933C297.74 80.6115 302.729 78.2171 308.316 84.0036Z" fill="#DEB905"/>
<path fill-rule="evenodd" clip-rule="evenodd" d="M308.316 146.457C308.316 153.84 303.926 156.035 297.74 152.044C297.74 144.462 301.731 139.673 308.316 146.457Z" fill="#DEB905"/>
<path fill-rule="evenodd" clip-rule="evenodd" d="M307.718 115.131C307.718 121.516 298.339 124.509 298.339 118.922C298.738 112.138 302.729 111.739 307.718 115.131Z" fill="#DEB905"/>
<path fill-rule="evenodd" clip-rule="evenodd" d="M293.948 37.1132C292.551 46.6908 287.562 47.0899 280.777 41.5029C282.174 31.9254 287.363 31.3268 293.948 37.1132Z" fill="#DEB905"/>
<path fill-rule="evenodd" clip-rule="evenodd" d="M292.751 68.2404C292.352 71.433 291.953 76.0223 287.562 75.6232C286.165 75.6232 282.174 74.426 282.174 72.6302C282.174 64.6488 286.964 63.8507 292.751 68.2404Z" fill="#DEB905"/>
<path fill-rule="evenodd" clip-rule="evenodd" d="M292.751 130.894C292.751 138.276 288.361 140.471 282.174 136.481C282.174 128.699 285.966 124.11 292.751 130.894Z" fill="#DEB905"/>
<path fill-rule="evenodd" clip-rule="evenodd" d="M292.152 98.9685C292.352 106.551 288.959 108.945 282.773 104.555C282.773 98.5695 286.565 93.3816 292.152 98.9685Z" fill="#DEB905"/>
<path fill-rule="evenodd" clip-rule="evenodd" d="M277.185 52.6768C276.387 57.8646 270.4 64.6488 266.609 57.0665C266.609 49.2847 271.797 47.2894 277.185 52.6768Z" fill="#DEB905"/>
<path fill-rule="evenodd" clip-rule="evenodd" d="M277.185 114.732C277.385 123.711 272.995 125.506 265.811 119.72C265.412 111.14 271.398 111.14 277.185 114.732Z" fill="#DEB905"/>
<path fill-rule="evenodd" clip-rule="evenodd" d="M276.587 83.4051C276.786 90.9873 273.394 93.3817 267.208 88.992C267.208 83.006 270.999 77.8181 276.587 83.4051Z" fill="#DEB905"/>
<path fill-rule="evenodd" clip-rule="evenodd" d="M276.587 146.457C276.587 152.842 267.208 155.835 267.208 150.249C267.607 143.265 271.398 143.065 276.587 146.457Z" fill="#DEB905"/>
<path fill-rule="evenodd" clip-rule="evenodd" d="M262.817 4.58927C263.216 14.3664 257.429 17.1599 249.646 11.5729C249.646 2.59394 255.234 -2.993 262.817 4.58927Z" fill="#DEB905"/>
<path fill-rule="evenodd" clip-rule="evenodd" d="M262.817 162.221C262.817 168.207 257.429 173.993 251.842 168.406C249.447 166.012 250.644 163.817 250.844 161.023C255.434 155.037 258.227 158.23 262.817 162.221Z" fill="#DEB905"/>
<path fill-rule="evenodd" clip-rule="evenodd" d="M261.42 35.7164C261.62 42.301 260.822 45.4935 253.837 44.4959C246.054 37.9113 253.239 30.9276 261.42 35.7164Z" fill="#DEB905"/>
<path fill-rule="evenodd" clip-rule="evenodd" d="M261.42 68.2405C260.622 73.4284 254.635 80.2125 250.844 72.6302C251.043 65.048 256.032 62.8531 261.42 68.2405Z" fill="#DEB905"/>
<path fill-rule="evenodd" clip-rule="evenodd" d="M261.42 98.3701C261.62 104.556 260.023 110.143 252.839 106.95C245.256 103.558 254.236 91.1869 261.42 98.3701Z" fill="#DEB905"/>
<path fill-rule="evenodd" clip-rule="evenodd" d="M261.42 130.894C260.622 136.082 254.635 142.866 250.844 135.284C251.043 127.502 256.032 125.506 261.42 130.894Z" fill="#DEB905"/>
<path fill-rule="evenodd" clip-rule="evenodd" d="M247.052 146.457C247.252 154.439 242.063 157.033 235.079 152.643C230.09 142.467 240.666 140.87 247.052 146.457Z" fill="#DEB905"/>
<path fill-rule="evenodd" clip-rule="evenodd" d="M246.454 20.1528C246.653 25.7398 240.267 35.7164 235.278 26.7374C230.09 17.5589 241.265 16.9603 246.454 20.1528Z" fill="#DEB905"/>
<path fill-rule="evenodd" clip-rule="evenodd" d="M246.454 84.0036C245.456 91.1868 242.063 94.5789 235.079 90.1891C230.489 80.6116 240.866 79.2148 246.454 84.0036Z" fill="#DEB905"/>
<path fill-rule="evenodd" clip-rule="evenodd" d="M245.855 52.078C246.054 60.0594 241.664 62.2542 235.278 57.665C235.278 49.4841 238.671 47.8878 245.855 52.078Z" fill="#DEB905"/>
<path fill-rule="evenodd" clip-rule="evenodd" d="M245.855 114.732C245.855 122.314 241.864 125.107 235.278 120.917C235.278 112.537 238.272 110.142 245.855 114.732Z" fill="#DEB905"/>
<path fill-rule="evenodd" clip-rule="evenodd" d="M231.487 4.58917C231.686 11.1738 229.092 17.5588 221.309 13.5682C212.928 9.17844 222.906 -3.99076 231.487 4.58917Z" fill="#DEB905"/>
<path fill-rule="evenodd" clip-rule="evenodd" d="M231.487 130.894C231.487 132.49 231.487 139.075 228.892 139.075C227.096 139.274 218.915 139.274 218.915 136.082C218.116 126.704 225.7 124.11 231.487 130.894Z" fill="#DEB905"/>
<path fill-rule="evenodd" clip-rule="evenodd" d="M230.888 67.6419C230.09 74.8251 226.099 79.6139 219.114 73.8274C218.915 64.8484 223.105 62.6536 230.888 67.6419Z" fill="#DEB905"/>
<path fill-rule="evenodd" clip-rule="evenodd" d="M230.289 35.7165C230.489 43.6979 227.096 47.2895 219.713 42.5007C219.513 34.3198 222.108 30.9277 230.289 35.7165Z" fill="#DEB905"/>
<path fill-rule="evenodd" clip-rule="evenodd" d="M230.289 98.37C230.489 106.351 227.096 109.943 219.713 105.354C215.921 97.7714 225.101 93.3816 230.289 98.37Z" fill="#DEB905"/>
<path fill-rule="evenodd" clip-rule="evenodd" d="M230.289 161.622C230.489 170.601 226.099 172.397 219.114 166.61C218.715 159.427 224.901 156.434 230.289 161.622Z" fill="#DEB905"/>
<path fill-rule="evenodd" clip-rule="evenodd" d="M215.722 52.6769C214.325 62.454 209.336 62.853 202.551 57.6652C202.75 47.489 209.535 47.2895 215.722 52.6769Z" fill="#DEB905"/>
<path fill-rule="evenodd" clip-rule="evenodd" d="M215.722 114.732C216.121 125.307 209.935 126.105 202.551 120.319C202.75 110.342 207.939 109.145 215.722 114.732Z" fill="#DEB905"/>
<path fill-rule="evenodd" clip-rule="evenodd" d="M215.123 20.153C215.323 28.9324 210.932 32.3245 203.15 26.9371C203.349 17.7586 206.941 14.7656 215.123 20.153Z" fill="#DEB905"/>
<path fill-rule="evenodd" clip-rule="evenodd" d="M215.123 84.0035C214.125 90.189 211.132 94.9778 204.946 90.3885C201.952 88.1937 203.15 88.3932 203.748 84.0035C208.338 78.6161 210.134 79.8133 215.123 84.0035Z" fill="#DEB905"/>
<path fill-rule="evenodd" clip-rule="evenodd" d="M214.524 145.26C214.724 151.246 213.127 157.033 205.943 153.84C198.161 150.448 207.34 138.077 214.524 145.26Z" fill="#DEB905"/>
<path fill-rule="evenodd" clip-rule="evenodd" d="M200.156 4.98832C199.158 12.9697 195.167 17.3594 187.584 11.972C182.795 2.59392 193.97 -7.62939e-06 200.156 4.98832Z" fill="#DEB905"/>
<path fill-rule="evenodd" clip-rule="evenodd" d="M200.156 35.7165C200.356 45.4937 194.768 48.4867 186.985 42.5007C186.985 33.9207 192.573 28.3338 200.156 35.7165Z" fill="#DEB905"/>
<path fill-rule="evenodd" clip-rule="evenodd" d="M200.156 98.9685C199.757 102.56 200.954 106.75 196.365 108.147C194.169 108.746 186.985 106.95 186.985 103.957C186.786 94.7783 193.77 92.5834 200.156 98.9685Z" fill="#DEB905"/>
<path fill-rule="evenodd" clip-rule="evenodd" d="M199.558 67.6417C198.959 73.0291 191.974 82.2077 187.584 73.2287C187.584 64.2497 192.373 62.8529 199.558 67.6417Z" fill="#DEB905"/>
<path fill-rule="evenodd" clip-rule="evenodd" d="M199.557 130.894C198.56 138.077 195.167 141.469 188.382 137.079C183.393 127.701 193.97 126.105 199.557 130.894Z" fill="#DEB905"/>
<path fill-rule="evenodd" clip-rule="evenodd" d="M198.36 162.221C198.36 170.002 188.582 170.002 189.779 163.218C190.777 157.631 194.968 159.826 198.36 162.221Z" fill="#DEB905"/>
<path fill-rule="evenodd" clip-rule="evenodd" d="M185.189 20.7514C184.192 28.7328 182.595 30.1295 174.613 30.1295C166.431 20.5519 176.209 11.7724 185.189 20.7514Z" fill="#DEB905"/>
<path fill-rule="evenodd" clip-rule="evenodd" d="M184.591 83.4048C183.593 94.3791 178.804 95.3768 170.821 88.3931C170.821 78.616 178.005 77.8179 184.591 83.4048Z" fill="#DEB905"/>
<path fill-rule="evenodd" clip-rule="evenodd" d="M183.793 51.4796C183.992 58.4633 180.6 65.2474 173.416 59.0619C170.023 56.0689 171.021 53.6745 173.615 50.482C177.606 46.2918 179.801 48.4866 183.793 51.4796Z" fill="#DEB905"/>
<path fill-rule="evenodd" clip-rule="evenodd" d="M183.792 115.131C182.994 121.316 179.801 126.105 173.615 121.516C170.622 119.321 171.819 119.72 172.418 115.131C177.207 109.943 178.803 111.14 183.792 115.131Z" fill="#DEB905"/>
<path fill-rule="evenodd" clip-rule="evenodd" d="M182.595 145.859C182.595 153.242 179.003 155.037 173.216 150.847C173.216 144.861 177.606 140.671 182.595 145.859Z" fill="#DEB905"/>
<path fill-rule="evenodd" clip-rule="evenodd" d="M170.023 3.79106C169.424 11.5729 164.236 21.35 156.054 12.5705C153.659 9.97659 154.058 5.38733 156.453 2.59386C161.043 -2.39447 165.832 0.798063 170.023 3.79106Z" fill="#DEB905"/>
<path fill-rule="evenodd" clip-rule="evenodd" d="M168.826 36.315C169.025 43.4982 164.834 49.0851 157.65 43.8973C154.657 41.7024 156.054 39.7071 156.453 36.315C160.843 31.1271 163.637 32.1248 168.826 36.315Z" fill="#DEB905"/>
<path fill-rule="evenodd" clip-rule="evenodd" d="M168.826 67.0431C169.025 74.8249 164.835 81.8086 157.251 75.224C149.868 68.8389 161.243 59.4609 168.826 67.0431Z" fill="#DEB905"/>
<path fill-rule="evenodd" clip-rule="evenodd" d="M168.227 98.9686C167.628 104.556 161.043 113.335 156.254 104.556C156.254 95.5766 161.043 94.1798 168.227 98.9686Z" fill="#DEB905"/>
<path fill-rule="evenodd" clip-rule="evenodd" d="M167.628 130.894C167.429 137.678 163.039 140.072 157.65 136.481C153.46 128.699 162.639 125.905 167.628 130.894Z" fill="#DEB905"/>
<path fill-rule="evenodd" clip-rule="evenodd" d="M167.03 162.221C167.03 168.606 157.65 171.399 157.65 166.012C158.05 158.828 162.041 158.629 167.03 162.221Z" fill="#DEB905"/>
<path fill-rule="evenodd" clip-rule="evenodd" d="M154.458 21.35C153.859 26.1388 154.058 26.7374 150.666 30.7281C146.475 30.9276 141.087 31.1272 139.89 26.3384C137.695 15.5636 148.67 13.5682 154.458 21.35Z" fill="#DEB905"/>
<path fill-rule="evenodd" clip-rule="evenodd" d="M153.859 52.6769C152.661 62.454 146.874 64.0503 139.491 58.2638C139.491 47.8881 147.273 45.0946 153.859 52.6769Z" fill="#DEB905"/>
<path fill-rule="evenodd" clip-rule="evenodd" d="M152.662 82.6068C152.861 91.3863 148.471 94.7784 140.888 89.391C140.688 80.412 144.679 77.818 152.662 82.6068Z" fill="#DEB905"/>
<path fill-rule="evenodd" clip-rule="evenodd" d="M152.063 113.933C152.262 122.114 148.271 125.107 141.486 120.119C141.287 113.933 146.076 107.947 152.063 113.933Z" fill="#DEB905"/>
<path fill-rule="evenodd" clip-rule="evenodd" d="M151.265 145.859C151.265 153.242 147.673 155.037 141.885 150.847C142.085 145.061 146.276 140.671 151.265 145.859Z" fill="#DEB905"/>
<path fill-rule="evenodd" clip-rule="evenodd" d="M138.892 3.79113C138.094 12.7701 132.905 19.7538 123.925 12.5706C118.737 1.79579 131.708 -3.19254 138.892 3.79113Z" fill="#DEB905"/>
<path fill-rule="evenodd" clip-rule="evenodd" d="M138.293 35.7164C137.495 44.4959 133.105 49.8833 124.524 43.8973C119.535 33.7211 131.309 28.9323 138.293 35.7164Z" fill="#DEB905"/>
<path fill-rule="evenodd" clip-rule="evenodd" d="M137.495 67.6419C137.495 74.2265 132.905 80.6116 126.12 74.8251C123.726 72.6303 123.726 69.8368 125.921 66.8438C129.513 61.6559 133.304 64.6489 137.495 67.6419Z" fill="#DEB905"/>
<path fill-rule="evenodd" clip-rule="evenodd" d="M137.495 162.22C137.695 171.798 131.309 171.998 124.923 166.61C125.123 155.835 130.511 156.833 137.495 162.22Z" fill="#DEB905"/>
<path fill-rule="evenodd" clip-rule="evenodd" d="M136.896 99.567C136.298 103.159 136.098 106.95 131.508 106.95C130.112 106.95 125.721 106.351 125.721 104.356C125.522 95.5763 129.912 93.7805 136.896 99.567Z" fill="#DEB905"/>
<path fill-rule="evenodd" clip-rule="evenodd" d="M136.298 130.894C136.298 137.878 132.107 140.073 126.32 136.481C122.329 128.3 131.109 125.706 136.298 130.894Z" fill="#DEB905"/>
<path fill-rule="evenodd" clip-rule="evenodd" d="M123.127 20.1529C122.129 30.3291 116.142 34.3198 107.562 27.7352C107.562 16.5613 114.346 12.5706 123.127 20.1529Z" fill="#DEB905"/>
<path fill-rule="evenodd" clip-rule="evenodd" d="M121.93 51.4796C122.329 60.4586 116.741 65.447 108.759 59.0619C108.559 49.8834 114.347 43.6978 121.93 51.4796Z" fill="#DEB905"/>
<path fill-rule="evenodd" clip-rule="evenodd" d="M121.93 83.4048C121.131 90.3885 113.149 97.3721 108.759 88.3931C108.958 79.0151 115.743 77.2193 121.93 83.4048Z" fill="#DEB905"/>
<path fill-rule="evenodd" clip-rule="evenodd" d="M121.93 148.453C121.93 156.634 109.358 156.035 109.358 151.047C109.158 141.07 120.134 139.274 121.93 148.453Z" fill="#DEB905"/>
<path fill-rule="evenodd" clip-rule="evenodd" d="M121.331 115.131C120.932 118.523 120.533 123.112 115.743 122.713C114.346 122.713 110.156 121.516 110.156 119.521C109.956 110.741 114.746 109.743 121.331 115.131Z" fill="#DEB905"/>
<path fill-rule="evenodd" clip-rule="evenodd" d="M107.561 4.9884C106.364 16.1623 100.178 17.7585 91.996 10.5753C92.9938 0.399132 100.178 -2.39434 107.561 4.9884Z" fill="#DEB905"/>
<path fill-rule="evenodd" clip-rule="evenodd" d="M107.562 36.3152C106.564 46.2919 99.5792 50.083 92.5947 41.9021C92.5947 31.5264 100.178 29.132 107.562 36.3152Z" fill="#DEB905"/>
<path fill-rule="evenodd" clip-rule="evenodd" d="M106.963 68.2403C106.364 73.0291 105.766 77.2193 100.178 76.6207C95.7877 76.2216 93.1934 75.623 93.5925 70.6347C94.3907 61.2566 101.974 62.6533 106.963 68.2403Z" fill="#DEB905"/>
<path fill-rule="evenodd" clip-rule="evenodd" d="M106.364 130.894C106.364 137.478 100.777 144.662 94.7898 137.079C92.7942 134.485 92.3951 130.495 95.1889 128.1C99.9783 124.509 102.772 127.901 106.364 130.894Z" fill="#DEB905"/>
<path fill-rule="evenodd" clip-rule="evenodd" d="M105.765 98.3698C105.965 104.156 102.972 111.339 95.9871 106.351C92.9937 104.156 92.9937 101.363 95.1889 98.1703C97.9827 94.1797 102.173 96.175 105.765 98.3698Z" fill="#DEB905"/>
<path fill-rule="evenodd" clip-rule="evenodd" d="M105.167 161.622C105.366 169.803 100.976 172.796 93.9916 168.007C93.7921 160.624 98.5814 155.237 105.167 161.622Z" fill="#DEB905"/>
<path fill-rule="evenodd" clip-rule="evenodd" d="M91.996 52.0783C91.3973 57.6652 90.9982 63.0526 83.6146 61.8554C81.8186 61.6559 77.0292 59.8601 77.0292 57.6652C77.8274 47.2895 84.2132 44.2965 91.996 52.0783Z" fill="#DEB905"/>
<path fill-rule="evenodd" clip-rule="evenodd" d="M91.3973 19.5542C91.7964 29.7304 85.6101 34.1202 77.0292 27.7351C77.0292 17.1598 81.619 13.1692 91.3973 19.5542Z" fill="#DEB905"/>
<path fill-rule="evenodd" clip-rule="evenodd" d="M90.5991 83.405C90.5991 89.9896 88.2044 93.1821 81.8186 92.1845C73.4372 84.8017 82.2177 74.8251 90.5991 83.405Z" fill="#DEB905"/>
<path fill-rule="evenodd" clip-rule="evenodd" d="M90.5992 114.732C90.2001 117.924 91.1979 121.516 87.8054 123.511C83.2156 126.105 77.0293 122.314 77.2288 117.126C77.8275 108.147 86.2089 111.34 90.5992 114.732Z" fill="#DEB905"/>
<path fill-rule="evenodd" clip-rule="evenodd" d="M89.4017 145.26C89.6013 151.446 87.8053 157.033 80.8208 153.84C73.038 150.448 82.2177 138.077 89.4017 145.26Z" fill="#DEB905"/>
<path fill-rule="evenodd" clip-rule="evenodd" d="M76.231 36.315C75.6323 41.3033 75.6323 41.9019 72.4394 46.2916C67.0514 45.693 60.8651 46.0921 61.4638 39.1084C62.4615 28.7327 70.4438 31.3267 76.231 36.315Z" fill="#DEB905"/>
<path fill-rule="evenodd" clip-rule="evenodd" d="M75.6323 4.58932C76.0314 15.3641 69.2465 17.559 61.2642 11.573C61.2642 1.39679 67.8496 -3.39201 75.6323 4.58932Z" fill="#DEB905"/>
<path fill-rule="evenodd" clip-rule="evenodd" d="M75.6323 67.6416C75.0336 74.2262 67.2508 83.6043 62.4615 73.6276C57.8716 63.2519 69.8451 61.8551 75.6323 67.6416Z" fill="#DEB905"/>
<path fill-rule="evenodd" clip-rule="evenodd" d="M75.0336 98.9685C74.0358 109.544 69.0469 110.741 61.2642 103.957C61.2642 94.3792 69.0469 92.9825 75.0336 98.9685Z" fill="#DEB905"/>
<path fill-rule="evenodd" clip-rule="evenodd" d="M74.4349 130.894C73.4371 138.077 69.6456 141.27 63.2597 137.079C58.2708 127.701 68.8473 126.105 74.4349 130.894Z" fill="#DEB905"/>
<path fill-rule="evenodd" clip-rule="evenodd" d="M73.2376 161.622C73.4372 169.005 69.8451 170.8 63.8584 166.61C63.8584 160.624 68.0491 156.434 73.2376 161.622Z" fill="#DEB905"/>
<path fill-rule="evenodd" clip-rule="evenodd" d="M60.6655 20.7514C60.0668 26.1388 59.8672 30.9276 53.0823 30.5286C48.4925 30.1295 45.8982 28.7328 46.0978 23.5449C46.6964 13.7678 55.477 13.9673 60.6655 20.7514Z" fill="#DEB905"/>
<path fill-rule="evenodd" clip-rule="evenodd" d="M60.0668 52.0783C59.6677 56.468 59.8673 57.8648 56.8739 61.4564C51.6854 61.0573 45.8983 62.055 46.2974 55.2708C46.8961 45.6932 54.6788 45.8928 60.0668 52.0783Z" fill="#DEB905"/>
<path fill-rule="evenodd" clip-rule="evenodd" d="M60.0668 84.0034C58.8695 94.7782 44.5013 96.175 45.8983 85.4002C46.896 76.2216 55.6766 79.0151 60.0668 84.0034Z" fill="#DEB905"/>
<path fill-rule="evenodd" clip-rule="evenodd" d="M58.8695 114.732C58.0713 121.915 54.0801 126.504 46.896 120.917C42.3062 112.138 53.4814 109.344 58.8695 114.732Z" fill="#DEB905"/>
<path fill-rule="evenodd" clip-rule="evenodd" d="M58.0713 145.859C57.4726 150.847 51.4859 159.228 47.4948 150.847C47.6943 143.065 52.0846 142.267 58.0713 145.859Z" fill="#DEB905"/>
<path fill-rule="evenodd" clip-rule="evenodd" d="M45.6986 5.78647C44.9004 12.3711 43.304 16.5613 36.1199 13.9673C31.9292 12.5706 31.5301 11.1739 32.1287 6.98367C32.927 -1.59626 41.7075 0.399072 45.6986 5.78647Z" fill="#DEB905"/>
<path fill-rule="evenodd" clip-rule="evenodd" d="M45.4992 36.9136C45.4992 46.4912 39.5124 48.0874 32.3284 42.5005C32.3284 33.322 38.5146 29.9299 45.4992 36.9136Z" fill="#DEB905"/>
<path fill-rule="evenodd" clip-rule="evenodd" d="M44.3017 99.5672C43.9026 102.959 43.5035 107.349 38.7141 106.95C37.3172 106.75 33.1265 105.753 33.1265 103.757C32.9269 95.1775 37.7163 94.1798 44.3017 99.5672Z" fill="#DEB905"/>
<path fill-rule="evenodd" clip-rule="evenodd" d="M45.1001 66.8437C45.1001 72.4306 42.9049 77.6185 36.5191 73.8273C30.5324 70.4353 38.1155 59.86 45.1001 66.8437Z" fill="#DEB905"/>
<path fill-rule="evenodd" clip-rule="evenodd" d="M43.1044 130.894C43.1044 137.279 33.7252 140.272 33.7252 134.685C34.1243 127.701 38.1155 127.302 43.1044 130.894Z" fill="#DEB905"/>
<path fill-rule="evenodd" clip-rule="evenodd" d="M29.9336 52.6768C29.3349 57.4656 28.7362 61.6558 23.1486 61.0572C18.9579 60.4586 15.9645 59.4609 16.5632 54.6721C17.3614 46.4913 25.9424 46.4913 29.9336 52.6768Z" fill="#DEB905"/>
<path fill-rule="evenodd" clip-rule="evenodd" d="M29.335 19.5543C29.7341 29.531 24.7452 33.5217 16.1642 26.9371C16.1642 19.1553 21.9514 11.9721 29.335 19.5543Z" fill="#DEB905"/>
<path fill-rule="evenodd" clip-rule="evenodd" d="M28.7362 83.4049C27.5389 94.1797 14.7672 93.7806 17.3615 84.6021C18.7584 79.4143 26.3416 78.2171 28.7362 83.4049Z" fill="#DEB905"/>
<path fill-rule="evenodd" clip-rule="evenodd" d="M27.539 114.732C27.7386 121.715 24.5456 124.309 18.1598 120.319C18.1598 112.736 21.3527 110.342 27.539 114.732Z" fill="#DEB905"/>
<path fill-rule="evenodd" clip-rule="evenodd" d="M27.539 146.457C27.539 152.842 18.1598 155.835 18.1598 150.249C18.5589 143.265 22.5501 143.065 27.539 146.457Z" fill="#DEB905"/>
<path fill-rule="evenodd" clip-rule="evenodd" d="M14.3682 5.78656C13.1708 16.1623 -1.59642 18.7562 0.199599 6.98376C1.5965 -2.19477 10.377 9.81688e-05 14.3682 5.78656Z" fill="#DEB905"/>
<path fill-rule="evenodd" clip-rule="evenodd" d="M14.3682 37.1132C13.7695 42.3011 13.5699 46.4913 6.98455 45.6931C5.38809 45.4936 0.598705 44.0969 0.598705 42.1015C0.399148 31.5263 7.98233 29.5309 14.3682 37.1132Z" fill="#DEB905"/>
<path fill-rule="evenodd" clip-rule="evenodd" d="M14.3682 68.2405C13.57 74.6256 11.9735 78.8158 4.78943 76.4214C0.79828 75.0246 0.199607 73.8274 0.79828 69.8368C1.79607 61.4564 10.377 62.6536 14.3682 68.2405Z" fill="#DEB905"/>
<path fill-rule="evenodd" clip-rule="evenodd" d="M12.5721 99.5672C12.7717 106.95 6.98452 108.147 1.79602 103.957C1.79602 98.1704 8.98009 92.384 12.5721 99.5672Z" fill="#DEB905"/>
<path fill-rule="evenodd" clip-rule="evenodd" d="M11.7739 130.894C11.7739 137.279 2.39465 140.272 2.39465 134.685C2.79377 127.701 6.78492 127.302 11.7739 130.894Z" fill="#DEB905"/>
</g>
<defs>
<clipPath id="clip0_116_3786">
<rect width="451" height="171" fill="white"/>
</clipPath>
</defs>
</svg>
